<mxfile host="Electron" agent="Mozilla/5.0 (X11; Linux x86_64) AppleWebKit/537.36 (KHTML, like Gecko) draw.io/24.7.17 Chrome/128.0.6613.36 Electron/32.0.1 Safari/537.36" version="24.7.17">
  <diagram name="Page-1" id="f1bijueSQkVZA-iyS_T1">
    <mxGraphModel dx="2172" dy="838" grid="1" gridSize="10" guides="1" tooltips="1" connect="1" arrows="1" fold="1" page="1" pageScale="1" pageWidth="850" pageHeight="1100" math="0" shadow="0">
      <root>
        <mxCell id="0" />
        <mxCell id="1" parent="0" />
        <mxCell id="LGbpVyOmxa7U6syn7aYf-2" value="Usuario" style="whiteSpace=wrap;html=1;align=center;" parent="1" vertex="1">
          <mxGeometry x="320" y="730" width="100" height="40" as="geometry" />
        </mxCell>
        <mxCell id="LGbpVyOmxa7U6syn7aYf-3" value="&lt;u&gt;Nombre Usuario&lt;/u&gt;" style="ellipse;whiteSpace=wrap;html=1;align=center;" parent="1" vertex="1">
          <mxGeometry x="70" y="770" width="100" height="40" as="geometry" />
        </mxCell>
        <mxCell id="LGbpVyOmxa7U6syn7aYf-4" value="Revista" style="whiteSpace=wrap;html=1;align=center;" parent="1" vertex="1">
          <mxGeometry x="780" y="700" width="100" height="40" as="geometry" />
        </mxCell>
        <mxCell id="LGbpVyOmxa7U6syn7aYf-5" value="Me gustas" style="ellipse;whiteSpace=wrap;html=1;align=center;" parent="1" vertex="1">
          <mxGeometry x="962.4" y="715" width="100" height="40" as="geometry" />
        </mxCell>
        <mxCell id="LGbpVyOmxa7U6syn7aYf-6" value="&lt;u&gt;No. Revista&lt;/u&gt;" style="ellipse;whiteSpace=wrap;html=1;align=center;" parent="1" vertex="1">
          <mxGeometry x="780" y="600" width="100" height="40" as="geometry" />
        </mxCell>
        <mxCell id="LGbpVyOmxa7U6syn7aYf-7" value="Contraseña" style="ellipse;whiteSpace=wrap;html=1;align=center;" parent="1" vertex="1">
          <mxGeometry x="140" y="805" width="100" height="40" as="geometry" />
        </mxCell>
        <mxCell id="LGbpVyOmxa7U6syn7aYf-8" value="Dinero" style="ellipse;whiteSpace=wrap;html=1;align=center;" parent="1" vertex="1">
          <mxGeometry x="325" y="930" width="100" height="40" as="geometry" />
        </mxCell>
        <mxCell id="LGbpVyOmxa7U6syn7aYf-9" value="Rol" style="ellipse;whiteSpace=wrap;html=1;align=center;" parent="1" vertex="1">
          <mxGeometry x="250" y="890" width="100" height="40" as="geometry" />
        </mxCell>
        <mxCell id="LGbpVyOmxa7U6syn7aYf-10" value="Tipo Anuncio" style="ellipse;whiteSpace=wrap;html=1;align=center;" parent="1" vertex="1">
          <mxGeometry x="115" y="215" width="100" height="40" as="geometry" />
        </mxCell>
        <mxCell id="LGbpVyOmxa7U6syn7aYf-11" value="Anuncio Activado" style="ellipse;whiteSpace=wrap;html=1;align=center;" parent="1" vertex="1">
          <mxGeometry x="235" y="205" width="100" height="40" as="geometry" />
        </mxCell>
        <mxCell id="LGbpVyOmxa7U6syn7aYf-12" value="Fecha Inicio Anuncio" style="ellipse;whiteSpace=wrap;html=1;align=center;" parent="1" vertex="1">
          <mxGeometry y="340" width="100" height="40" as="geometry" />
        </mxCell>
        <mxCell id="LGbpVyOmxa7U6syn7aYf-14" value="Fecha Fin Anuncio" style="ellipse;whiteSpace=wrap;html=1;align=center;" parent="1" vertex="1">
          <mxGeometry x="65" y="390" width="100" height="35" as="geometry" />
        </mxCell>
        <mxCell id="LGbpVyOmxa7U6syn7aYf-15" value="Costo Suscripción" style="ellipse;whiteSpace=wrap;html=1;align=center;" parent="1" vertex="1">
          <mxGeometry x="930" y="650" width="100" height="40" as="geometry" />
        </mxCell>
        <mxCell id="LGbpVyOmxa7U6syn7aYf-16" value="Etiquetas/Tags" style="ellipse;whiteSpace=wrap;html=1;align=center;" parent="1" vertex="1">
          <mxGeometry x="952.4" y="785" width="100" height="40" as="geometry" />
        </mxCell>
        <mxCell id="LGbpVyOmxa7U6syn7aYf-18" value="&lt;u&gt;Nombre Usuario&lt;/u&gt;" style="ellipse;whiteSpace=wrap;html=1;align=center;" parent="1" vertex="1">
          <mxGeometry y="215" width="100" height="40" as="geometry" />
        </mxCell>
        <mxCell id="LGbpVyOmxa7U6syn7aYf-19" value="Descripción" style="ellipse;whiteSpace=wrap;html=1;align=center;" parent="1" vertex="1">
          <mxGeometry x="770" y="780" width="100" height="40" as="geometry" />
        </mxCell>
        <mxCell id="LGbpVyOmxa7U6syn7aYf-20" value="Foto" style="ellipse;whiteSpace=wrap;html=1;align=center;" parent="1" vertex="1">
          <mxGeometry x="50" y="700" width="100" height="40" as="geometry" />
        </mxCell>
        <mxCell id="LGbpVyOmxa7U6syn7aYf-21" value="Categoría" style="ellipse;whiteSpace=wrap;html=1;align=center;" parent="1" vertex="1">
          <mxGeometry x="922.4" y="845" width="100" height="40" as="geometry" />
        </mxCell>
        <mxCell id="LGbpVyOmxa7U6syn7aYf-22" value="Hobbies" style="ellipse;whiteSpace=wrap;html=1;align=center;" parent="1" vertex="1">
          <mxGeometry x="60" y="650" width="100" height="40" as="geometry" />
        </mxCell>
        <mxCell id="LGbpVyOmxa7U6syn7aYf-23" value="Descripción" style="ellipse;whiteSpace=wrap;html=1;align=center;" parent="1" vertex="1">
          <mxGeometry x="100" y="590" width="100" height="40" as="geometry" />
        </mxCell>
        <mxCell id="LGbpVyOmxa7U6syn7aYf-24" value="Gustos" style="ellipse;whiteSpace=wrap;html=1;align=center;" parent="1" vertex="1">
          <mxGeometry x="220" y="590" width="100" height="40" as="geometry" />
        </mxCell>
        <mxCell id="LGbpVyOmxa7U6syn7aYf-27" value="&lt;u&gt;No. Revista&lt;/u&gt;" style="ellipse;whiteSpace=wrap;html=1;align=center;" parent="1" vertex="1">
          <mxGeometry x="480" y="1000" width="100" height="40" as="geometry" />
        </mxCell>
        <mxCell id="LGbpVyOmxa7U6syn7aYf-28" value="&lt;u&gt;Nombre Usuario&lt;/u&gt;" style="ellipse;whiteSpace=wrap;html=1;align=center;" parent="1" vertex="1">
          <mxGeometry x="580" y="1000" width="100" height="40" as="geometry" />
        </mxCell>
        <mxCell id="wJ7iaOQ5hvEqCZV8gsYV-3" value="&lt;u&gt;No. Revista&lt;/u&gt;" style="ellipse;whiteSpace=wrap;html=1;align=center;" parent="1" vertex="1">
          <mxGeometry x="435" y="400" width="100" height="40" as="geometry" />
        </mxCell>
        <mxCell id="wJ7iaOQ5hvEqCZV8gsYV-4" value="&lt;u&gt;Nombre Usuario&lt;/u&gt;" style="ellipse;whiteSpace=wrap;html=1;align=center;" parent="1" vertex="1">
          <mxGeometry x="545" y="380" width="100" height="40" as="geometry" />
        </mxCell>
        <mxCell id="wJ7iaOQ5hvEqCZV8gsYV-7" value="" style="edgeStyle=entityRelationEdgeStyle;fontSize=12;html=1;endArrow=ERoneToMany;startArrow=ERmandOne;rounded=0;movable=1;resizable=1;rotatable=1;deletable=1;editable=1;locked=0;connectable=1;entryX=0.003;entryY=0.415;entryDx=0;entryDy=0;entryPerimeter=0;" parent="1" target="ODeqALxyDRSs7xoRyXN0-2" edge="1">
          <mxGeometry width="100" height="100" relative="1" as="geometry">
            <mxPoint x="420" y="750" as="sourcePoint" />
            <mxPoint x="490" y="970" as="targetPoint" />
          </mxGeometry>
        </mxCell>
        <mxCell id="BL1HkFGfUJQa3nedmxJ6-32" value="1" style="edgeLabel;html=1;align=center;verticalAlign=middle;resizable=0;points=[];" parent="wJ7iaOQ5hvEqCZV8gsYV-7" vertex="1" connectable="0">
          <mxGeometry x="-0.9451" y="1" relative="1" as="geometry">
            <mxPoint as="offset" />
          </mxGeometry>
        </mxCell>
        <mxCell id="xmOZ-3lqCGrRgNR7PhEx-2" value="Fecha Creacion" style="ellipse;whiteSpace=wrap;html=1;align=center;" parent="1" vertex="1">
          <mxGeometry x="645" y="390" width="100" height="40" as="geometry" />
        </mxCell>
        <mxCell id="xmOZ-3lqCGrRgNR7PhEx-3" value="Fecha Creacion" style="ellipse;whiteSpace=wrap;html=1;align=center;" parent="1" vertex="1">
          <mxGeometry x="535" y="840" width="100" height="40" as="geometry" />
        </mxCell>
        <mxCell id="xmOZ-3lqCGrRgNR7PhEx-5" value="&lt;u&gt;No. Revista&lt;/u&gt;" style="ellipse;whiteSpace=wrap;html=1;align=center;" parent="1" vertex="1">
          <mxGeometry x="962.4" y="400" width="100" height="40" as="geometry" />
        </mxCell>
        <mxCell id="xmOZ-3lqCGrRgNR7PhEx-7" value="&lt;u&gt;Nombre Usuario&lt;/u&gt;" style="ellipse;whiteSpace=wrap;html=1;align=center;" parent="1" vertex="1">
          <mxGeometry x="1082.4" y="480" width="100" height="40" as="geometry" />
        </mxCell>
        <mxCell id="xmOZ-3lqCGrRgNR7PhEx-8" value="Comentario" style="ellipse;whiteSpace=wrap;html=1;align=center;" parent="1" vertex="1">
          <mxGeometry x="1192.4" y="460" width="100" height="40" as="geometry" />
        </mxCell>
        <mxCell id="XMexzgMkfGKX-pwrWhg7-1" value="vigenciaAnuncio" style="ellipse;whiteSpace=wrap;html=1;align=center;" parent="1" vertex="1">
          <mxGeometry x="175" y="415" width="100" height="40" as="geometry" />
        </mxCell>
        <mxCell id="XMexzgMkfGKX-pwrWhg7-2" value="Anuncio&amp;nbsp;&lt;div&gt;Caducado&lt;/div&gt;" style="ellipse;whiteSpace=wrap;html=1;align=center;" parent="1" vertex="1">
          <mxGeometry x="370" y="300" width="100" height="40" as="geometry" />
        </mxCell>
        <mxCell id="BL1HkFGfUJQa3nedmxJ6-2" value="&lt;u&gt;No. Revista&lt;/u&gt;" style="ellipse;whiteSpace=wrap;html=1;align=center;" parent="1" vertex="1">
          <mxGeometry x="425.0000000000001" y="1305" width="100" height="40" as="geometry" />
        </mxCell>
        <mxCell id="BL1HkFGfUJQa3nedmxJ6-3" value="&lt;u&gt;Nombre Usuario&lt;/u&gt;" style="ellipse;whiteSpace=wrap;html=1;align=center;" parent="1" vertex="1">
          <mxGeometry x="535.0000000000001" y="1305" width="100" height="40" as="geometry" />
        </mxCell>
        <mxCell id="BL1HkFGfUJQa3nedmxJ6-5" value="Fecha Creacion" style="ellipse;whiteSpace=wrap;html=1;align=center;" parent="1" vertex="1">
          <mxGeometry x="637.6" y="1300" width="100" height="40" as="geometry" />
        </mxCell>
        <mxCell id="BL1HkFGfUJQa3nedmxJ6-6" value="Fecha Creacion" style="ellipse;whiteSpace=wrap;html=1;align=center;" parent="1" vertex="1">
          <mxGeometry x="1302.4" y="430" width="100" height="40" as="geometry" />
        </mxCell>
        <mxCell id="BL1HkFGfUJQa3nedmxJ6-9" value="" style="endArrow=none;html=1;rounded=0;entryX=0.465;entryY=1.003;entryDx=0;entryDy=0;entryPerimeter=0;exitX=0.5;exitY=0;exitDx=0;exitDy=0;" parent="1" source="BL1HkFGfUJQa3nedmxJ6-2" edge="1">
          <mxGeometry width="50" height="50" relative="1" as="geometry">
            <mxPoint x="505.0000000000001" y="1300" as="sourcePoint" />
            <mxPoint x="560.8" y="1240.1799999999998" as="targetPoint" />
          </mxGeometry>
        </mxCell>
        <mxCell id="BL1HkFGfUJQa3nedmxJ6-10" value="" style="endArrow=none;html=1;rounded=0;entryX=0.5;entryY=1;entryDx=0;entryDy=0;" parent="1" source="BL1HkFGfUJQa3nedmxJ6-3" edge="1">
          <mxGeometry width="50" height="50" relative="1" as="geometry">
            <mxPoint x="575.0000000000001" y="1310" as="sourcePoint" />
            <mxPoint x="565" y="1240" as="targetPoint" />
          </mxGeometry>
        </mxCell>
        <mxCell id="BL1HkFGfUJQa3nedmxJ6-11" value="" style="endArrow=none;html=1;rounded=0;exitX=0.076;exitY=0.245;exitDx=0;exitDy=0;exitPerimeter=0;" parent="1" edge="1">
          <mxGeometry width="50" height="50" relative="1" as="geometry">
            <mxPoint x="652.6" y="1299.8" as="sourcePoint" />
            <mxPoint x="565.0000000000001" y="1240" as="targetPoint" />
          </mxGeometry>
        </mxCell>
        <mxCell id="BL1HkFGfUJQa3nedmxJ6-12" value="" style="endArrow=none;html=1;rounded=0;entryX=0.467;entryY=0.982;entryDx=0;entryDy=0;entryPerimeter=0;" parent="1" source="xmOZ-3lqCGrRgNR7PhEx-5" edge="1">
          <mxGeometry width="50" height="50" relative="1" as="geometry">
            <mxPoint x="1022.4" y="600" as="sourcePoint" />
            <mxPoint x="1178.44" y="358.9200000000001" as="targetPoint" />
          </mxGeometry>
        </mxCell>
        <mxCell id="BL1HkFGfUJQa3nedmxJ6-13" value="" style="endArrow=none;html=1;rounded=0;entryX=0.5;entryY=1;entryDx=0;entryDy=0;exitX=0.71;exitY=-0.03;exitDx=0;exitDy=0;exitPerimeter=0;" parent="1" source="xmOZ-3lqCGrRgNR7PhEx-7" edge="1">
          <mxGeometry width="50" height="50" relative="1" as="geometry">
            <mxPoint x="1059.4" y="417" as="sourcePoint" />
            <mxPoint x="1182.4" y="360" as="targetPoint" />
          </mxGeometry>
        </mxCell>
        <mxCell id="BL1HkFGfUJQa3nedmxJ6-14" value="" style="endArrow=none;html=1;rounded=0;exitX=0.373;exitY=0.038;exitDx=0;exitDy=0;exitPerimeter=0;" parent="1" source="xmOZ-3lqCGrRgNR7PhEx-8" edge="1">
          <mxGeometry width="50" height="50" relative="1" as="geometry">
            <mxPoint x="1123.4" y="469" as="sourcePoint" />
            <mxPoint x="1182.4" y="360" as="targetPoint" />
          </mxGeometry>
        </mxCell>
        <mxCell id="BL1HkFGfUJQa3nedmxJ6-15" value="" style="endArrow=none;html=1;rounded=0;exitX=0;exitY=0;exitDx=0;exitDy=0;entryX=0.5;entryY=1;entryDx=0;entryDy=0;" parent="1" source="BL1HkFGfUJQa3nedmxJ6-6" edge="1">
          <mxGeometry width="50" height="50" relative="1" as="geometry">
            <mxPoint x="1239.4" y="472" as="sourcePoint" />
            <mxPoint x="1182.4" y="360" as="targetPoint" />
          </mxGeometry>
        </mxCell>
        <mxCell id="BL1HkFGfUJQa3nedmxJ6-16" value="" style="endArrow=none;html=1;rounded=0;" parent="1" source="wJ7iaOQ5hvEqCZV8gsYV-3" edge="1">
          <mxGeometry width="50" height="50" relative="1" as="geometry">
            <mxPoint x="371" y="554" as="sourcePoint" />
            <mxPoint x="560.2631578947369" y="447.3684210526317" as="targetPoint" />
          </mxGeometry>
        </mxCell>
        <mxCell id="BL1HkFGfUJQa3nedmxJ6-17" value="" style="endArrow=none;html=1;rounded=0;exitX=0.5;exitY=1;exitDx=0;exitDy=0;entryX=0.543;entryY=0.03;entryDx=0;entryDy=0;entryPerimeter=0;" parent="1" source="wJ7iaOQ5hvEqCZV8gsYV-4" target="ODeqALxyDRSs7xoRyXN0-4" edge="1">
          <mxGeometry width="50" height="50" relative="1" as="geometry">
            <mxPoint x="538" y="552" as="sourcePoint" />
            <mxPoint x="595" y="430" as="targetPoint" />
          </mxGeometry>
        </mxCell>
        <mxCell id="BL1HkFGfUJQa3nedmxJ6-18" value="" style="endArrow=none;html=1;rounded=0;exitX=0.22;exitY=0.846;exitDx=0;exitDy=0;exitPerimeter=0;entryX=1;entryY=0;entryDx=0;entryDy=0;" parent="1" source="xmOZ-3lqCGrRgNR7PhEx-2" edge="1">
          <mxGeometry width="50" height="50" relative="1" as="geometry">
            <mxPoint x="692.2534730791247" y="534.8862183442111" as="sourcePoint" />
            <mxPoint x="625" y="445" as="targetPoint" />
          </mxGeometry>
        </mxCell>
        <mxCell id="BL1HkFGfUJQa3nedmxJ6-19" value="" style="endArrow=none;html=1;rounded=0;exitX=1;exitY=0;exitDx=0;exitDy=0;" parent="1" source="LGbpVyOmxa7U6syn7aYf-12" edge="1">
          <mxGeometry width="50" height="50" relative="1" as="geometry">
            <mxPoint x="65" y="375" as="sourcePoint" />
            <mxPoint x="167.5647583101745" y="328.78237915508726" as="targetPoint" />
          </mxGeometry>
        </mxCell>
        <mxCell id="BL1HkFGfUJQa3nedmxJ6-20" value="" style="endArrow=none;html=1;rounded=0;exitX=0.553;exitY=-0.011;exitDx=0;exitDy=0;exitPerimeter=0;entryX=0.5;entryY=1;entryDx=0;entryDy=0;" parent="1" source="LGbpVyOmxa7U6syn7aYf-14" target="ODeqALxyDRSs7xoRyXN0-5" edge="1">
          <mxGeometry width="50" height="50" relative="1" as="geometry">
            <mxPoint x="75" y="385" as="sourcePoint" />
            <mxPoint x="205.68000000000006" y="346.28" as="targetPoint" />
          </mxGeometry>
        </mxCell>
        <mxCell id="BL1HkFGfUJQa3nedmxJ6-21" value="" style="endArrow=none;html=1;rounded=0;exitX=0.341;exitY=0.117;exitDx=0;exitDy=0;exitPerimeter=0;entryX=0.572;entryY=0.986;entryDx=0;entryDy=0;entryPerimeter=0;" parent="1" source="XMexzgMkfGKX-pwrWhg7-1" target="ODeqALxyDRSs7xoRyXN0-5" edge="1">
          <mxGeometry width="50" height="50" relative="1" as="geometry">
            <mxPoint x="175" y="390" as="sourcePoint" />
            <mxPoint x="215.03999999999996" y="348.44000000000005" as="targetPoint" />
          </mxGeometry>
        </mxCell>
        <mxCell id="BL1HkFGfUJQa3nedmxJ6-22" value="" style="endArrow=none;html=1;rounded=0;exitX=0.08;exitY=0.234;exitDx=0;exitDy=0;exitPerimeter=0;entryX=1;entryY=1;entryDx=0;entryDy=0;" parent="1" source="XMexzgMkfGKX-pwrWhg7-2" edge="1">
          <mxGeometry width="50" height="50" relative="1" as="geometry">
            <mxPoint x="274" y="385" as="sourcePoint" />
            <mxPoint x="240" y="335" as="targetPoint" />
          </mxGeometry>
        </mxCell>
        <mxCell id="BL1HkFGfUJQa3nedmxJ6-23" value="" style="endArrow=none;html=1;rounded=0;exitX=0.455;exitY=1.048;exitDx=0;exitDy=0;exitPerimeter=0;entryX=0.592;entryY=0.101;entryDx=0;entryDy=0;entryPerimeter=0;" parent="1" source="LGbpVyOmxa7U6syn7aYf-11" edge="1">
          <mxGeometry width="50" height="50" relative="1" as="geometry">
            <mxPoint x="368" y="369" as="sourcePoint" />
            <mxPoint x="221.03999999999996" y="296.05999999999995" as="targetPoint" />
          </mxGeometry>
        </mxCell>
        <mxCell id="BL1HkFGfUJQa3nedmxJ6-24" value="" style="endArrow=none;html=1;rounded=0;exitX=0.722;exitY=0.935;exitDx=0;exitDy=0;exitPerimeter=0;entryX=0.5;entryY=0;entryDx=0;entryDy=0;" parent="1" source="LGbpVyOmxa7U6syn7aYf-10" edge="1">
          <mxGeometry width="50" height="50" relative="1" as="geometry">
            <mxPoint x="291" y="257" as="sourcePoint" />
            <mxPoint x="210" y="290" as="targetPoint" />
          </mxGeometry>
        </mxCell>
        <mxCell id="BL1HkFGfUJQa3nedmxJ6-25" value="" style="endArrow=none;html=1;rounded=0;exitX=1;exitY=1;exitDx=0;exitDy=0;entryX=0.433;entryY=0.083;entryDx=0;entryDy=0;entryPerimeter=0;" parent="1" source="LGbpVyOmxa7U6syn7aYf-18" edge="1">
          <mxGeometry width="50" height="50" relative="1" as="geometry">
            <mxPoint x="197" y="262" as="sourcePoint" />
            <mxPoint x="201.96000000000004" y="294.98" as="targetPoint" />
          </mxGeometry>
        </mxCell>
        <mxCell id="BL1HkFGfUJQa3nedmxJ6-30" value="" style="edgeStyle=entityRelationEdgeStyle;fontSize=12;html=1;endArrow=ERzeroToMany;endFill=1;rounded=0;entryX=0;entryY=0.25;entryDx=0;entryDy=0;exitX=1;exitY=0.5;exitDx=0;exitDy=0;" parent="1" source="ODeqALxyDRSs7xoRyXN0-2" target="LGbpVyOmxa7U6syn7aYf-4" edge="1">
          <mxGeometry width="100" height="100" relative="1" as="geometry">
            <mxPoint x="615" y="970" as="sourcePoint" />
            <mxPoint x="790" y="680" as="targetPoint" />
          </mxGeometry>
        </mxCell>
        <mxCell id="BL1HkFGfUJQa3nedmxJ6-31" value="1" style="edgeLabel;html=1;align=center;verticalAlign=middle;resizable=0;points=[];" parent="BL1HkFGfUJQa3nedmxJ6-30" vertex="1" connectable="0">
          <mxGeometry x="-0.9651" y="1" relative="1" as="geometry">
            <mxPoint as="offset" />
          </mxGeometry>
        </mxCell>
        <mxCell id="BL1HkFGfUJQa3nedmxJ6-33" value="" style="endArrow=none;html=1;rounded=0;entryX=0;entryY=0.5;entryDx=0;entryDy=0;exitX=1;exitY=0.5;exitDx=0;exitDy=0;" parent="1" source="LGbpVyOmxa7U6syn7aYf-20" target="LGbpVyOmxa7U6syn7aYf-2" edge="1">
          <mxGeometry width="50" height="50" relative="1" as="geometry">
            <mxPoint x="220" y="760" as="sourcePoint" />
            <mxPoint x="287" y="708" as="targetPoint" />
          </mxGeometry>
        </mxCell>
        <mxCell id="BL1HkFGfUJQa3nedmxJ6-34" value="" style="endArrow=none;html=1;rounded=0;entryX=0;entryY=0.25;entryDx=0;entryDy=0;exitX=1;exitY=1;exitDx=0;exitDy=0;" parent="1" source="LGbpVyOmxa7U6syn7aYf-22" target="LGbpVyOmxa7U6syn7aYf-2" edge="1">
          <mxGeometry width="50" height="50" relative="1" as="geometry">
            <mxPoint x="160" y="755" as="sourcePoint" />
            <mxPoint x="330" y="760" as="targetPoint" />
          </mxGeometry>
        </mxCell>
        <mxCell id="BL1HkFGfUJQa3nedmxJ6-35" value="" style="endArrow=none;html=1;rounded=0;entryX=0;entryY=0;entryDx=0;entryDy=0;exitX=0.583;exitY=1.089;exitDx=0;exitDy=0;exitPerimeter=0;" parent="1" source="LGbpVyOmxa7U6syn7aYf-23" target="LGbpVyOmxa7U6syn7aYf-2" edge="1">
          <mxGeometry width="50" height="50" relative="1" as="geometry">
            <mxPoint x="165" y="714" as="sourcePoint" />
            <mxPoint x="330" y="750" as="targetPoint" />
          </mxGeometry>
        </mxCell>
        <mxCell id="BL1HkFGfUJQa3nedmxJ6-36" value="" style="endArrow=none;html=1;rounded=0;entryX=0.186;entryY=0.025;entryDx=0;entryDy=0;exitX=0.5;exitY=1;exitDx=0;exitDy=0;entryPerimeter=0;" parent="1" source="LGbpVyOmxa7U6syn7aYf-24" target="LGbpVyOmxa7U6syn7aYf-2" edge="1">
          <mxGeometry width="50" height="50" relative="1" as="geometry">
            <mxPoint x="248" y="704" as="sourcePoint" />
            <mxPoint x="330" y="740" as="targetPoint" />
          </mxGeometry>
        </mxCell>
        <mxCell id="BL1HkFGfUJQa3nedmxJ6-37" value="" style="endArrow=none;html=1;rounded=0;exitX=1;exitY=0;exitDx=0;exitDy=0;" parent="1" source="LGbpVyOmxa7U6syn7aYf-3" edge="1">
          <mxGeometry width="50" height="50" relative="1" as="geometry">
            <mxPoint x="160" y="755" as="sourcePoint" />
            <mxPoint x="320" y="760" as="targetPoint" />
          </mxGeometry>
        </mxCell>
        <mxCell id="BL1HkFGfUJQa3nedmxJ6-38" value="" style="endArrow=none;html=1;rounded=0;exitX=0.673;exitY=0.1;exitDx=0;exitDy=0;exitPerimeter=0;" parent="1" source="LGbpVyOmxa7U6syn7aYf-7" edge="1">
          <mxGeometry width="50" height="50" relative="1" as="geometry">
            <mxPoint x="165" y="786" as="sourcePoint" />
            <mxPoint x="320" y="770" as="targetPoint" />
          </mxGeometry>
        </mxCell>
        <mxCell id="BL1HkFGfUJQa3nedmxJ6-39" value="" style="endArrow=none;html=1;rounded=0;exitX=0.628;exitY=-0.047;exitDx=0;exitDy=0;exitPerimeter=0;entryX=0.147;entryY=1.06;entryDx=0;entryDy=0;entryPerimeter=0;" parent="1" source="LGbpVyOmxa7U6syn7aYf-9" target="LGbpVyOmxa7U6syn7aYf-2" edge="1">
          <mxGeometry width="50" height="50" relative="1" as="geometry">
            <mxPoint x="217" y="819" as="sourcePoint" />
            <mxPoint x="330" y="780" as="targetPoint" />
          </mxGeometry>
        </mxCell>
        <mxCell id="BL1HkFGfUJQa3nedmxJ6-40" value="" style="endArrow=none;html=1;rounded=0;exitX=0.5;exitY=0;exitDx=0;exitDy=0;entryX=0.5;entryY=1;entryDx=0;entryDy=0;" parent="1" source="LGbpVyOmxa7U6syn7aYf-8" target="LGbpVyOmxa7U6syn7aYf-2" edge="1">
          <mxGeometry width="50" height="50" relative="1" as="geometry">
            <mxPoint x="313" y="838" as="sourcePoint" />
            <mxPoint x="345" y="782" as="targetPoint" />
          </mxGeometry>
        </mxCell>
        <mxCell id="BL1HkFGfUJQa3nedmxJ6-41" value="" style="endArrow=none;html=1;rounded=0;entryX=0.578;entryY=-0.021;entryDx=0;entryDy=0;entryPerimeter=0;" parent="1" source="LGbpVyOmxa7U6syn7aYf-6" target="LGbpVyOmxa7U6syn7aYf-4" edge="1">
          <mxGeometry width="50" height="50" relative="1" as="geometry">
            <mxPoint x="697" y="565" as="sourcePoint" />
            <mxPoint x="600" y="520" as="targetPoint" />
          </mxGeometry>
        </mxCell>
        <mxCell id="BL1HkFGfUJQa3nedmxJ6-42" value="" style="endArrow=none;html=1;rounded=0;entryX=0.88;entryY=-0.041;entryDx=0;entryDy=0;entryPerimeter=0;exitX=0.241;exitY=0.907;exitDx=0;exitDy=0;exitPerimeter=0;" parent="1" source="LGbpVyOmxa7U6syn7aYf-15" target="LGbpVyOmxa7U6syn7aYf-4" edge="1">
          <mxGeometry width="50" height="50" relative="1" as="geometry">
            <mxPoint x="857" y="650" as="sourcePoint" />
            <mxPoint x="848" y="709" as="targetPoint" />
          </mxGeometry>
        </mxCell>
        <mxCell id="BL1HkFGfUJQa3nedmxJ6-43" value="" style="endArrow=none;html=1;rounded=0;entryX=0.88;entryY=-0.041;entryDx=0;entryDy=0;entryPerimeter=0;exitX=0;exitY=0.5;exitDx=0;exitDy=0;" parent="1" source="LGbpVyOmxa7U6syn7aYf-5" edge="1">
          <mxGeometry width="50" height="50" relative="1" as="geometry">
            <mxPoint x="944" y="646" as="sourcePoint" />
            <mxPoint x="878" y="708" as="targetPoint" />
          </mxGeometry>
        </mxCell>
        <mxCell id="BL1HkFGfUJQa3nedmxJ6-44" value="" style="endArrow=none;html=1;rounded=0;entryX=1;entryY=0.5;entryDx=0;entryDy=0;exitX=0.004;exitY=0.682;exitDx=0;exitDy=0;exitPerimeter=0;" parent="1" source="LGbpVyOmxa7U6syn7aYf-16" target="LGbpVyOmxa7U6syn7aYf-4" edge="1">
          <mxGeometry width="50" height="50" relative="1" as="geometry">
            <mxPoint x="960" y="690" as="sourcePoint" />
            <mxPoint x="888" y="718" as="targetPoint" />
          </mxGeometry>
        </mxCell>
        <mxCell id="BL1HkFGfUJQa3nedmxJ6-46" value="" style="endArrow=none;html=1;rounded=0;entryX=1;entryY=1;entryDx=0;entryDy=0;" parent="1" source="LGbpVyOmxa7U6syn7aYf-21" target="LGbpVyOmxa7U6syn7aYf-4" edge="1">
          <mxGeometry width="50" height="50" relative="1" as="geometry">
            <mxPoint x="950" y="767" as="sourcePoint" />
            <mxPoint x="890" y="730" as="targetPoint" />
          </mxGeometry>
        </mxCell>
        <mxCell id="BL1HkFGfUJQa3nedmxJ6-47" value="" style="endArrow=none;html=1;rounded=0;entryX=0.633;entryY=0.974;entryDx=0;entryDy=0;entryPerimeter=0;" parent="1" source="LGbpVyOmxa7U6syn7aYf-19" target="LGbpVyOmxa7U6syn7aYf-4" edge="1">
          <mxGeometry width="50" height="50" relative="1" as="geometry">
            <mxPoint x="949" y="802" as="sourcePoint" />
            <mxPoint x="890" y="750" as="targetPoint" />
          </mxGeometry>
        </mxCell>
        <mxCell id="BL1HkFGfUJQa3nedmxJ6-48" value="" style="endArrow=none;html=1;rounded=0;" parent="1" target="xmOZ-3lqCGrRgNR7PhEx-3" edge="1">
          <mxGeometry width="50" height="50" relative="1" as="geometry">
            <mxPoint x="578.56098064101" y="911.7804903205047" as="sourcePoint" />
            <mxPoint x="853" y="749" as="targetPoint" />
          </mxGeometry>
        </mxCell>
        <mxCell id="BL1HkFGfUJQa3nedmxJ6-49" value="" style="endArrow=none;html=1;rounded=0;exitX=0.5;exitY=1;exitDx=0;exitDy=0;" parent="1" target="LGbpVyOmxa7U6syn7aYf-28" edge="1">
          <mxGeometry width="50" height="50" relative="1" as="geometry">
            <mxPoint x="575" y="970" as="sourcePoint" />
            <mxPoint x="666" y="1053" as="targetPoint" />
          </mxGeometry>
        </mxCell>
        <mxCell id="BL1HkFGfUJQa3nedmxJ6-50" value="" style="endArrow=none;html=1;rounded=0;exitX=0.5;exitY=1;exitDx=0;exitDy=0;entryX=0.608;entryY=0.107;entryDx=0;entryDy=0;entryPerimeter=0;" parent="1" target="LGbpVyOmxa7U6syn7aYf-27" edge="1">
          <mxGeometry width="50" height="50" relative="1" as="geometry">
            <mxPoint x="575" y="970" as="sourcePoint" />
            <mxPoint x="574" y="1040" as="targetPoint" />
          </mxGeometry>
        </mxCell>
        <mxCell id="BL1HkFGfUJQa3nedmxJ6-58" value="" style="endArrow=none;html=1;rounded=0;exitX=0.9;exitY=0;exitDx=0;exitDy=0;exitPerimeter=0;entryX=1;entryY=1;entryDx=0;entryDy=0;" parent="1" source="LGbpVyOmxa7U6syn7aYf-2" edge="1">
          <mxGeometry width="50" height="50" relative="1" as="geometry">
            <mxPoint x="360" y="635" as="sourcePoint" />
            <mxPoint x="240" y="335" as="targetPoint" />
          </mxGeometry>
        </mxCell>
        <mxCell id="BL1HkFGfUJQa3nedmxJ6-61" value="1" style="edgeLabel;html=1;align=center;verticalAlign=middle;resizable=0;points=[];" parent="BL1HkFGfUJQa3nedmxJ6-58" vertex="1" connectable="0">
          <mxGeometry x="-0.921" relative="1" as="geometry">
            <mxPoint as="offset" />
          </mxGeometry>
        </mxCell>
        <mxCell id="BL1HkFGfUJQa3nedmxJ6-62" value="*muchos" style="edgeLabel;html=1;align=center;verticalAlign=middle;resizable=0;points=[];" parent="BL1HkFGfUJQa3nedmxJ6-58" vertex="1" connectable="0">
          <mxGeometry x="0.943" y="-2" relative="1" as="geometry">
            <mxPoint x="-5" y="15" as="offset" />
          </mxGeometry>
        </mxCell>
        <mxCell id="BL1HkFGfUJQa3nedmxJ6-63" value="" style="endArrow=none;html=1;rounded=0;entryX=0.358;entryY=0.946;entryDx=0;entryDy=0;entryPerimeter=0;" parent="1" target="ODeqALxyDRSs7xoRyXN0-4" edge="1">
          <mxGeometry width="50" height="50" relative="1" as="geometry">
            <mxPoint x="420" y="730" as="sourcePoint" />
            <mxPoint x="270" y="290" as="targetPoint" />
          </mxGeometry>
        </mxCell>
        <mxCell id="BL1HkFGfUJQa3nedmxJ6-64" value="1" style="edgeLabel;html=1;align=center;verticalAlign=middle;resizable=0;points=[];" parent="BL1HkFGfUJQa3nedmxJ6-63" vertex="1" connectable="0">
          <mxGeometry x="-0.921" relative="1" as="geometry">
            <mxPoint as="offset" />
          </mxGeometry>
        </mxCell>
        <mxCell id="BL1HkFGfUJQa3nedmxJ6-65" value="*muchos" style="edgeLabel;html=1;align=center;verticalAlign=middle;resizable=0;points=[];" parent="BL1HkFGfUJQa3nedmxJ6-63" vertex="1" connectable="0">
          <mxGeometry x="0.943" y="-2" relative="1" as="geometry">
            <mxPoint as="offset" />
          </mxGeometry>
        </mxCell>
        <mxCell id="BL1HkFGfUJQa3nedmxJ6-66" value="" style="endArrow=none;html=1;rounded=0;exitX=0.2;exitY=0;exitDx=0;exitDy=0;exitPerimeter=0;" parent="1" source="LGbpVyOmxa7U6syn7aYf-4" target="ODeqALxyDRSs7xoRyXN0-4" edge="1">
          <mxGeometry width="50" height="50" relative="1" as="geometry">
            <mxPoint x="430" y="740" as="sourcePoint" />
            <mxPoint x="610" y="490" as="targetPoint" />
          </mxGeometry>
        </mxCell>
        <mxCell id="BL1HkFGfUJQa3nedmxJ6-67" value="1" style="edgeLabel;html=1;align=center;verticalAlign=middle;resizable=0;points=[];" parent="BL1HkFGfUJQa3nedmxJ6-66" vertex="1" connectable="0">
          <mxGeometry x="-0.921" relative="1" as="geometry">
            <mxPoint as="offset" />
          </mxGeometry>
        </mxCell>
        <mxCell id="BL1HkFGfUJQa3nedmxJ6-68" value="*muchos" style="edgeLabel;html=1;align=center;verticalAlign=middle;resizable=0;points=[];" parent="BL1HkFGfUJQa3nedmxJ6-66" vertex="1" connectable="0">
          <mxGeometry x="0.943" y="-2" relative="1" as="geometry">
            <mxPoint y="13" as="offset" />
          </mxGeometry>
        </mxCell>
        <mxCell id="BL1HkFGfUJQa3nedmxJ6-69" value="" style="endArrow=none;html=1;rounded=0;entryX=0.468;entryY=0.922;entryDx=0;entryDy=0;entryPerimeter=0;" parent="1" edge="1">
          <mxGeometry width="50" height="50" relative="1" as="geometry">
            <mxPoint x="870" y="700" as="sourcePoint" />
            <mxPoint x="1178.5600000000004" y="355.31999999999994" as="targetPoint" />
          </mxGeometry>
        </mxCell>
        <mxCell id="BL1HkFGfUJQa3nedmxJ6-70" value="1" style="edgeLabel;html=1;align=center;verticalAlign=middle;resizable=0;points=[];" parent="BL1HkFGfUJQa3nedmxJ6-69" vertex="1" connectable="0">
          <mxGeometry x="-0.921" relative="1" as="geometry">
            <mxPoint as="offset" />
          </mxGeometry>
        </mxCell>
        <mxCell id="BL1HkFGfUJQa3nedmxJ6-71" value="*muchos" style="edgeLabel;html=1;align=center;verticalAlign=middle;resizable=0;points=[];" parent="BL1HkFGfUJQa3nedmxJ6-69" vertex="1" connectable="0">
          <mxGeometry x="0.943" y="-2" relative="1" as="geometry">
            <mxPoint as="offset" />
          </mxGeometry>
        </mxCell>
        <mxCell id="BL1HkFGfUJQa3nedmxJ6-72" value="" style="edgeStyle=entityRelationEdgeStyle;fontSize=12;html=1;endArrow=ERzeroToMany;endFill=1;rounded=0;entryX=0;entryY=0.25;entryDx=0;entryDy=0;exitX=1;exitY=0.5;exitDx=0;exitDy=0;" parent="1" source="ODeqALxyDRSs7xoRyXN0-1" edge="1">
          <mxGeometry width="100" height="100" relative="1" as="geometry">
            <mxPoint x="625" y="980" as="sourcePoint" />
            <mxPoint x="790" y="720" as="targetPoint" />
          </mxGeometry>
        </mxCell>
        <mxCell id="BL1HkFGfUJQa3nedmxJ6-73" value="1" style="edgeLabel;html=1;align=center;verticalAlign=middle;resizable=0;points=[];" parent="BL1HkFGfUJQa3nedmxJ6-72" vertex="1" connectable="0">
          <mxGeometry x="-0.9651" y="1" relative="1" as="geometry">
            <mxPoint as="offset" />
          </mxGeometry>
        </mxCell>
        <mxCell id="BL1HkFGfUJQa3nedmxJ6-76" value="" style="endArrow=none;html=1;rounded=0;entryX=0.75;entryY=1;entryDx=0;entryDy=0;exitX=0;exitY=0.5;exitDx=0;exitDy=0;" parent="1" source="ODeqALxyDRSs7xoRyXN0-1" target="LGbpVyOmxa7U6syn7aYf-2" edge="1">
          <mxGeometry width="50" height="50" relative="1" as="geometry">
            <mxPoint x="450" y="1150" as="sourcePoint" />
            <mxPoint x="575" y="485" as="targetPoint" />
          </mxGeometry>
        </mxCell>
        <mxCell id="BL1HkFGfUJQa3nedmxJ6-77" value="1" style="edgeLabel;html=1;align=center;verticalAlign=middle;resizable=0;points=[];" parent="BL1HkFGfUJQa3nedmxJ6-76" vertex="1" connectable="0">
          <mxGeometry x="-0.921" relative="1" as="geometry">
            <mxPoint as="offset" />
          </mxGeometry>
        </mxCell>
        <mxCell id="BL1HkFGfUJQa3nedmxJ6-78" value="*muchos" style="edgeLabel;html=1;align=center;verticalAlign=middle;resizable=0;points=[];" parent="BL1HkFGfUJQa3nedmxJ6-76" vertex="1" connectable="0">
          <mxGeometry x="0.943" y="-2" relative="1" as="geometry">
            <mxPoint as="offset" />
          </mxGeometry>
        </mxCell>
        <mxCell id="imf_mLPofFv5KsWT_XU8-1" value="Tipo Anuncio" style="ellipse;whiteSpace=wrap;html=1;align=center;" parent="1" vertex="1">
          <mxGeometry x="-480" y="975" width="100" height="40" as="geometry" />
        </mxCell>
        <mxCell id="imf_mLPofFv5KsWT_XU8-2" value="Anuncio Activado" style="ellipse;whiteSpace=wrap;html=1;align=center;" parent="1" vertex="1">
          <mxGeometry x="-355" y="960" width="100" height="40" as="geometry" />
        </mxCell>
        <mxCell id="imf_mLPofFv5KsWT_XU8-7" value="vigenciaAnuncio" style="ellipse;whiteSpace=wrap;html=1;align=center;" parent="1" vertex="1">
          <mxGeometry x="-420" y="1175" width="100" height="40" as="geometry" />
        </mxCell>
        <mxCell id="imf_mLPofFv5KsWT_XU8-11" value="" style="endArrow=none;html=1;rounded=0;exitX=0.341;exitY=0.117;exitDx=0;exitDy=0;exitPerimeter=0;entryX=0.5;entryY=1;entryDx=0;entryDy=0;" parent="1" source="imf_mLPofFv5KsWT_XU8-7" target="ODeqALxyDRSs7xoRyXN0-6" edge="1">
          <mxGeometry width="50" height="50" relative="1" as="geometry">
            <mxPoint x="-420" y="1150" as="sourcePoint" />
            <mxPoint x="-379.9599999999996" y="1108.44" as="targetPoint" />
          </mxGeometry>
        </mxCell>
        <mxCell id="imf_mLPofFv5KsWT_XU8-13" value="" style="endArrow=none;html=1;rounded=0;exitX=0.455;exitY=1.048;exitDx=0;exitDy=0;exitPerimeter=0;entryX=0.592;entryY=0.101;entryDx=0;entryDy=0;entryPerimeter=0;" parent="1" source="imf_mLPofFv5KsWT_XU8-2" edge="1">
          <mxGeometry width="50" height="50" relative="1" as="geometry">
            <mxPoint x="-227" y="1129" as="sourcePoint" />
            <mxPoint x="-373.9599999999998" y="1056.06" as="targetPoint" />
          </mxGeometry>
        </mxCell>
        <mxCell id="imf_mLPofFv5KsWT_XU8-14" value="" style="endArrow=none;html=1;rounded=0;exitX=0.722;exitY=0.935;exitDx=0;exitDy=0;exitPerimeter=0;entryX=0.5;entryY=0;entryDx=0;entryDy=0;" parent="1" source="imf_mLPofFv5KsWT_XU8-1" edge="1">
          <mxGeometry width="50" height="50" relative="1" as="geometry">
            <mxPoint x="-304" y="1017" as="sourcePoint" />
            <mxPoint x="-384.9999999999998" y="1050" as="targetPoint" />
          </mxGeometry>
        </mxCell>
        <mxCell id="ODeqALxyDRSs7xoRyXN0-1" value="Me Gusta" style="shape=associativeEntity;whiteSpace=wrap;html=1;align=center;" vertex="1" parent="1">
          <mxGeometry x="495" y="1180" width="140" height="60" as="geometry" />
        </mxCell>
        <mxCell id="ODeqALxyDRSs7xoRyXN0-19" value="" style="edgeStyle=orthogonalEdgeStyle;rounded=0;orthogonalLoop=1;jettySize=auto;html=1;" edge="1" parent="1" source="ODeqALxyDRSs7xoRyXN0-2" target="xmOZ-3lqCGrRgNR7PhEx-3">
          <mxGeometry relative="1" as="geometry" />
        </mxCell>
        <mxCell id="ODeqALxyDRSs7xoRyXN0-2" value="Suscribir" style="shape=associativeEntity;whiteSpace=wrap;html=1;align=center;" vertex="1" parent="1">
          <mxGeometry x="510" y="910" width="140" height="60" as="geometry" />
        </mxCell>
        <mxCell id="ODeqALxyDRSs7xoRyXN0-3" value="Comentar" style="shape=associativeEntity;whiteSpace=wrap;html=1;align=center;" vertex="1" parent="1">
          <mxGeometry x="1100" y="300" width="140" height="60" as="geometry" />
        </mxCell>
        <mxCell id="ODeqALxyDRSs7xoRyXN0-4" value="Comentar" style="shape=associativeEntity;whiteSpace=wrap;html=1;align=center;" vertex="1" parent="1">
          <mxGeometry x="525" y="440" width="140" height="60" as="geometry" />
        </mxCell>
        <mxCell id="ODeqALxyDRSs7xoRyXN0-5" value="Anunciar" style="shape=associativeEntity;whiteSpace=wrap;html=1;align=center;" vertex="1" parent="1">
          <mxGeometry x="135" y="280" width="140" height="60" as="geometry" />
        </mxCell>
        <mxCell id="ODeqALxyDRSs7xoRyXN0-6" value="Anuncio" style="whiteSpace=wrap;html=1;align=center;" vertex="1" parent="1">
          <mxGeometry x="-435" y="1050" width="100" height="40" as="geometry" />
        </mxCell>
        <mxCell id="ODeqALxyDRSs7xoRyXN0-7" value="" style="endArrow=none;html=1;rounded=0;" edge="1" parent="1">
          <mxGeometry width="50" height="50" relative="1" as="geometry">
            <mxPoint x="80" y="990" as="sourcePoint" />
            <mxPoint x="320" y="770" as="targetPoint" />
          </mxGeometry>
        </mxCell>
        <mxCell id="ODeqALxyDRSs7xoRyXN0-8" value="1" style="edgeLabel;html=1;align=center;verticalAlign=middle;resizable=0;points=[];" vertex="1" connectable="0" parent="ODeqALxyDRSs7xoRyXN0-7">
          <mxGeometry x="-0.921" relative="1" as="geometry">
            <mxPoint x="-85" y="50" as="offset" />
          </mxGeometry>
        </mxCell>
        <mxCell id="ODeqALxyDRSs7xoRyXN0-9" value="*muchos" style="edgeLabel;html=1;align=center;verticalAlign=middle;resizable=0;points=[];" vertex="1" connectable="0" parent="ODeqALxyDRSs7xoRyXN0-7">
          <mxGeometry x="0.943" y="-2" relative="1" as="geometry">
            <mxPoint as="offset" />
          </mxGeometry>
        </mxCell>
        <mxCell id="ODeqALxyDRSs7xoRyXN0-10" value="Comprar" style="shape=associativeEntity;whiteSpace=wrap;html=1;align=center;" vertex="1" parent="1">
          <mxGeometry x="-65" y="980" width="140" height="60" as="geometry" />
        </mxCell>
        <mxCell id="ODeqALxyDRSs7xoRyXN0-11" value="" style="endArrow=none;html=1;rounded=0;entryX=0.25;entryY=1;entryDx=0;entryDy=0;exitX=1;exitY=0.5;exitDx=0;exitDy=0;" edge="1" parent="1" source="ODeqALxyDRSs7xoRyXN0-6" target="ODeqALxyDRSs7xoRyXN0-10">
          <mxGeometry width="50" height="50" relative="1" as="geometry">
            <mxPoint x="-170" y="1240" as="sourcePoint" />
            <mxPoint x="-10" y="1050" as="targetPoint" />
          </mxGeometry>
        </mxCell>
        <mxCell id="ODeqALxyDRSs7xoRyXN0-12" value="1" style="edgeLabel;html=1;align=center;verticalAlign=middle;resizable=0;points=[];" vertex="1" connectable="0" parent="ODeqALxyDRSs7xoRyXN0-11">
          <mxGeometry x="-0.921" relative="1" as="geometry">
            <mxPoint as="offset" />
          </mxGeometry>
        </mxCell>
        <mxCell id="ODeqALxyDRSs7xoRyXN0-13" value="*muchos" style="edgeLabel;html=1;align=center;verticalAlign=middle;resizable=0;points=[];" vertex="1" connectable="0" parent="ODeqALxyDRSs7xoRyXN0-11">
          <mxGeometry x="0.943" y="-2" relative="1" as="geometry">
            <mxPoint as="offset" />
          </mxGeometry>
        </mxCell>
        <mxCell id="ODeqALxyDRSs7xoRyXN0-15" value="Fecha Compra" style="ellipse;whiteSpace=wrap;html=1;align=center;" vertex="1" parent="1">
          <mxGeometry x="-100" y="870" width="100" height="40" as="geometry" />
        </mxCell>
        <mxCell id="ODeqALxyDRSs7xoRyXN0-16" value="&lt;u&gt;Nombre Usuario&lt;/u&gt;" style="ellipse;whiteSpace=wrap;html=1;align=center;" vertex="1" parent="1">
          <mxGeometry x="110" y="1085" width="100" height="40" as="geometry" />
        </mxCell>
        <mxCell id="ODeqALxyDRSs7xoRyXN0-17" value="&lt;u&gt;ID anuncio&lt;/u&gt;" style="ellipse;whiteSpace=wrap;html=1;align=center;" vertex="1" parent="1">
          <mxGeometry x="-330" y="1125" width="100" height="40" as="geometry" />
        </mxCell>
        <mxCell id="ODeqALxyDRSs7xoRyXN0-18" value="&lt;u&gt;ID anuncio&lt;/u&gt;" style="ellipse;whiteSpace=wrap;html=1;align=center;" vertex="1" parent="1">
          <mxGeometry x="-50" y="1105" width="100" height="40" as="geometry" />
        </mxCell>
        <mxCell id="ODeqALxyDRSs7xoRyXN0-21" value="" style="endArrow=none;html=1;rounded=0;exitX=0.5;exitY=1;exitDx=0;exitDy=0;entryX=0.5;entryY=0;entryDx=0;entryDy=0;" edge="1" parent="1" source="ODeqALxyDRSs7xoRyXN0-10" target="ODeqALxyDRSs7xoRyXN0-18">
          <mxGeometry width="50" height="50" relative="1" as="geometry">
            <mxPoint x="14" y="1056" as="sourcePoint" />
            <mxPoint x="-20" y="1090" as="targetPoint" />
          </mxGeometry>
        </mxCell>
        <mxCell id="ODeqALxyDRSs7xoRyXN0-22" value="" style="endArrow=none;html=1;rounded=0;exitX=0.786;exitY=1.033;exitDx=0;exitDy=0;exitPerimeter=0;" edge="1" parent="1" source="ODeqALxyDRSs7xoRyXN0-10" target="ODeqALxyDRSs7xoRyXN0-16">
          <mxGeometry width="50" height="50" relative="1" as="geometry">
            <mxPoint x="15" y="1050" as="sourcePoint" />
            <mxPoint x="96.40000000000009" y="1071.6" as="targetPoint" />
          </mxGeometry>
        </mxCell>
        <mxCell id="ODeqALxyDRSs7xoRyXN0-23" value="" style="endArrow=none;html=1;rounded=0;exitX=0.798;exitY=0.842;exitDx=0;exitDy=0;entryX=0.429;entryY=0;entryDx=0;entryDy=0;exitPerimeter=0;entryPerimeter=0;" edge="1" parent="1" source="ODeqALxyDRSs7xoRyXN0-15" target="ODeqALxyDRSs7xoRyXN0-10">
          <mxGeometry width="50" height="50" relative="1" as="geometry">
            <mxPoint x="59.5" y="870" as="sourcePoint" />
            <mxPoint x="110.5" y="900" as="targetPoint" />
          </mxGeometry>
        </mxCell>
      </root>
    </mxGraphModel>
  </diagram>
</mxfile>
